<svg xmlns="http://www.w3.org/2000/svg" width="60" height="20" viewBox="0 0 60 20">
    <g>
        <path d="M213.3 124.9a6.548 6.548 0 0 0 2.971-.684 7.144 7.144 0 0 0 1.925-1.439v2.122h2.219v-14.1h-2.219v1.872a6.5 6.5 0 0 0-1.836-1.486 6.3 6.3 0 0 0-3.013-.724 6.638 6.638 0 0 0-4.92 2.109 7.063 7.063 0 0 0-2.041 5.075 7.194 7.194 0 0 0 2.023 5.14 6.553 6.553 0 0 0 4.891 2.115zm-3.99-9.716a4.781 4.781 0 0 1 1.759-1.842 4.68 4.68 0 0 1 2.415-.655 4.524 4.524 0 0 1 3.425 1.446 5.028 5.028 0 0 1 1.393 3.612 5.243 5.243 0 0 1-.62 2.551 4.606 4.606 0 0 1-1.769 1.784 4.724 4.724 0 0 1-4.824 0 4.884 4.884 0 0 1-1.774-1.866 5.131 5.131 0 0 1-.005-5.027z" transform="translate(-172.699 -104.896)"/>
        <path d="M228.411 110.794v-2.783h-2.245v2.783h-4.416v2.06h4.416v12.041h2.245v-12.041h4.289v-2.06z" transform="translate(-172.699 -104.896)"/>
        <path d="M189.434 123.522l.722-1.559.027-2.255h-2.368v2.426h.7l-.415 1.388z" transform="translate(-172.699 -104.896)"/>
        <path d="M0 0H2.368V2.425H0z" transform="translate(-172.699 -104.896) translate(187.814 112.707)"/>
        <path d="M174.92 122.772a7.138 7.138 0 0 0 1.923 1.439 6.739 6.739 0 0 0 7.863-1.432 7.193 7.193 0 0 0 2.023-5.14 7.064 7.064 0 0 0-2.043-5.075 6.633 6.633 0 0 0-4.919-2.109 6.3 6.3 0 0 0-3.013.724 6.528 6.528 0 0 0-1.834 1.486V104.9h-2.22v20h2.221zm1.286-8.642a4.526 4.526 0 0 1 3.426-1.446 4.681 4.681 0 0 1 2.414.655 4.784 4.784 0 0 1 1.76 1.842 5.124 5.124 0 0 1-.006 5.027 4.884 4.884 0 0 1-1.773 1.866 4.726 4.726 0 0 1-4.825 0 4.6 4.6 0 0 1-1.769-1.783 5.244 5.244 0 0 1-.62-2.552 5.029 5.029 0 0 1 1.393-3.609z" transform="translate(-172.699 -104.896)"/>
        <path d="M198.549 124.9a7.3 7.3 0 0 0 2.658-.461 6.607 6.607 0 0 0 2.124-1.348 8.113 8.113 0 0 0 1.654-2.311l.11-.22h-2.55a5.571 5.571 0 0 1-.827.979 4.734 4.734 0 0 1-1.495.873 5.146 5.146 0 0 1-1.819.332 4.226 4.226 0 0 1-3.225-1.377 5.051 5.051 0 0 1-1.343-3.257h11.607v-.3a7.553 7.553 0 0 0-1.487-4.684 6.631 6.631 0 0 0-5.5-2.667 6.428 6.428 0 0 0-5.35 2.608 7.455 7.455 0 0 0-1.571 4.649 7.531 7.531 0 0 0 1.853 4.968 6.417 6.417 0 0 0 5.161 2.216zm-3.149-11.057a4.426 4.426 0 0 1 3.073-1.171 4.826 4.826 0 0 1 2.078.468 4.325 4.325 0 0 1 1.576 1.224 5.012 5.012 0 0 1 .814 1.683H194.1a5.057 5.057 0 0 1 1.3-2.204z" transform="translate(-172.699 -104.896)"/>
    </g>
</svg>
